# xmcd
#
# Track frame offsets:
#	150
#	16503
#	36092
#	56428
#	74137
#	89892
#	105216
#	122351
#	139641
#	156289
#	172642
#	192231
#	212567
#	230276
#	246031
#	261355
#	278490
#	295780
#
# Disc length: 4165 seconds
#
# Revision: 1
# Processed by: cddbd v1.5.1PL2 Copyright (c) Steve Scherf et al.
# Submitted via: audiograbber 1.83.01
#
DISCID=ee104312
DTITLE=Various Artist - Nsc3048
DYEAR=1900
DGENRE=Karaoke
TTITLE0=Keith, Toby - American Soldier
TTITLE1=Urban, Keith - You'll Think Of Me
TTITLE2=Flatts, Rascal - Mayberry
TTITLE3=Loveless, Patty - On Your Way Home
TTITLE4=Green, Pat - Guy Like Me
TTITLE5=Isaacs, Sonya - No Regrets Yet
TTITLE6=Lawrence, Tracy - Paint Me A Birmingham
TTITLE7=Rimes, Leann - This Love
TTITLE8=Walker, Clay - I Can't Sleep
TTITLE9=Keith, Toby - American Soldier (Vocals)
TTITLE10=Urban, Keith - You'll Think Of Me (Vocals)
TTITLE11=Flatts, Rascal - Mayberry (Vocals)
TTITLE12=Loveless, Patty - On Your Way Home (Vocals)
TTITLE13=Green, Pat - Guy Like Me (Vocals)
TTITLE14=Isaacs, Sonya - No Regrets Yet (Vocals)
TTITLE15=Lawrence, Tracy - Paint Me A Birmingham (Vocals)
TTITLE16=Rimes, Leann - This Love (Vocals)
TTITLE17=Walker, Clay - I Can't Sleep (Vocals)
EXTD=
EXTT0=
EXTT1=
EXTT2=
EXTT3=
EXTT4=
EXTT5=
EXTT6=
EXTT7=
EXTT8=
EXTT9=
EXTT10=
EXTT11=
EXTT12=
EXTT13=
EXTT14=
EXTT15=
EXTT16=
EXTT17=
PLAYORDER=
